<?xml version="1.0" encoding="UTF-8"?>
<!DOCTYPE svg PUBLIC "-//W3C//DTD SVG 1.1//EN" "http://www.w3.org/Graphics/SVG/1.1/DTD/svg11.dtd">
<svg xmlns="http://www.w3.org/2000/svg" version="1.1" width="2465px" height="205px" style="shape-rendering:geometricPrecision; text-rendering:geometricPrecision; image-rendering:optimizeQuality; fill-rule:evenodd; clip-rule:evenodd" xmlns:xlink="http://www.w3.org/1999/xlink">
<g><path style="opacity:0.976" fill="#fefffe" d="M 458.5,19.5 C 498.534,18.9415 538.534,19.7749 578.5,22C 590.566,22.7481 602.566,24.0814 614.5,26C 632.865,29.0342 643.032,39.8675 645,58.5C 651.486,90.3194 650.819,121.986 643,153.5C 640.674,164.491 634.174,171.658 623.5,175C 617.285,176.869 610.952,178.203 604.5,179C 535.5,186.333 466.5,186.333 397.5,179C 386.508,178.411 376.508,175.077 367.5,169C 362.623,163.391 359.457,156.891 358,149.5C 350.417,116.416 350.75,83.416 359,50.5C 362.915,35.9231 372.415,27.7565 387.5,26C 411.231,22.8819 434.898,20.7152 458.5,19.5 Z M 479.5,42.5 C 506.741,42.1284 533.908,43.1284 561,45.5C 563.499,46.0831 565.499,47.4164 567,49.5C 574.258,66.0416 577.758,83.3749 577.5,101.5C 577.779,119.16 574.613,136.16 568,152.5C 564.646,156.956 560.146,159.123 554.5,159C 516.794,161.271 479.128,160.938 441.5,158C 438.461,156.969 435.961,155.135 434,152.5C 421.748,119.624 421.415,86.6244 433,53.5C 434.598,48.9014 437.765,46.0681 442.5,45C 454.98,44.0473 467.313,43.214 479.5,42.5 Z"/></g>
<g><path style="opacity:0.978" fill="#fefffe" d="M 1194.5,19.5 C 1221.18,19.2079 1247.85,19.7079 1274.5,21C 1289.09,21.0443 1300.26,27.2109 1308,39.5C 1336.17,85.8333 1364.33,132.167 1392.5,178.5C 1367.46,179.823 1342.46,179.823 1317.5,178.5C 1293.41,135.995 1269.58,93.3281 1246,50.5C 1240.36,44.5054 1233.36,41.8387 1225,42.5C 1216.64,41.8387 1209.64,44.5054 1204,50.5C 1180.29,93.4139 1156.46,136.247 1132.5,179C 1107.84,179.5 1083.17,179.667 1058.5,179.5C 1058.34,178.127 1058.51,176.793 1059,175.5C 1087.75,128.333 1116.75,81.3326 1146,34.5C 1150.62,28.7775 1156.45,24.9442 1163.5,23C 1173.91,21.2588 1184.25,20.0921 1194.5,19.5 Z"/></g>
<g><path style="opacity:0.976" fill="#fefffe" d="M 2251.5,19.5 C 2291.53,18.9415 2331.53,19.7749 2371.5,22C 2383.57,22.6741 2395.57,24.0075 2407.5,26C 2421,27.179 2430.16,34.0124 2435,46.5C 2444.59,82.0735 2444.93,117.74 2436,153.5C 2433.93,163.151 2428.43,169.984 2419.5,174C 2412.37,176.523 2405.03,178.189 2397.5,179C 2328.5,186.333 2259.5,186.333 2190.5,179C 2179.6,178.114 2169.6,174.78 2160.5,169C 2154.87,161.8 2151.37,153.633 2150,144.5C 2143.52,113.01 2144.18,81.6767 2152,50.5C 2155.27,37.563 2163.44,29.7297 2176.5,27C 2185.41,25.0942 2194.41,23.7608 2203.5,23C 2219.66,21.846 2235.66,20.6794 2251.5,19.5 Z M 2272.5,42.5 C 2299.74,42.1284 2326.91,43.1284 2354,45.5C 2356.5,46.0831 2358.5,47.4164 2360,49.5C 2367.53,66.1603 2371.03,83.6603 2370.5,102C 2371.31,121.155 2367.31,139.155 2358.5,156C 2355.04,157.743 2351.38,158.743 2347.5,159C 2309.79,161.271 2272.13,160.938 2234.5,158C 2231.8,157.31 2229.64,155.81 2228,153.5C 2214.79,120.463 2214.12,87.1295 2226,53.5C 2227.6,48.9014 2230.76,46.0681 2235.5,45C 2247.98,44.0473 2260.31,43.214 2272.5,42.5 Z"/></g>
<g><path style="opacity:0.98" fill="#fefffe" d="M 22.5,23.5 C 46.5,23.5 70.5,23.5 94.5,23.5C 94.5,43.5 94.5,63.5 94.5,83.5C 110.503,83.6666 126.503,83.4999 142.5,83C 171.5,63.3333 200.5,43.6667 229.5,24C 257.167,23.3333 284.833,23.3333 312.5,24C 278.971,47.6947 245.305,71.1947 211.5,94.5C 250.833,122.5 290.167,150.5 329.5,178.5C 302.173,179.667 274.839,179.833 247.5,179C 214.167,157 180.833,135 147.5,113C 129.836,112.5 112.17,112.333 94.5,112.5C 94.5,134.833 94.5,157.167 94.5,179.5C 70.5,179.5 46.5,179.5 22.5,179.5C 22.5,127.5 22.5,75.5 22.5,23.5 Z"/></g>
<g><path style="opacity:0.98" fill="#fefffe" d="M 718.5,23.5 C 784.844,23.0958 851.177,23.5958 917.5,25C 938.549,26.0596 959.549,27.7263 980.5,30C 989.32,30.3225 997.153,33.1559 1004,38.5C 1009.33,48.82 1012,59.82 1012,71.5C 1012.54,80.5241 1012.21,89.5241 1011,98.5C 1010.26,104.776 1008.6,110.776 1006,116.5C 1002.74,120.382 998.57,122.549 993.5,123C 980.5,123.333 967.5,123.667 954.5,124C 976.551,141.052 998.884,157.718 1021.5,174C 1023.61,175.264 1024.61,177.097 1024.5,179.5C 998.498,179.667 972.498,179.5 946.5,179C 912.023,152.024 877.69,124.857 843.5,97.5C 842.614,96.675 842.281,95.675 842.5,94.5C 866.836,94.3334 891.169,94.5 915.5,95C 921.911,99.9552 928.411,104.789 935,109.5C 942.423,91.8796 943.423,73.8796 938,55.5C 937.208,53.4127 936.041,51.5793 934.5,50C 915.562,48.1191 896.562,47.1191 877.5,47C 848.502,46.5 819.502,46.3334 790.5,46.5C 790.5,90.8333 790.5,135.167 790.5,179.5C 766.5,179.5 742.5,179.5 718.5,179.5C 718.5,127.5 718.5,75.5 718.5,23.5 Z"/></g>
<g><path style="opacity:0.982" fill="#fefffe" d="M 1431.5,23.5 C 1451.17,23.3334 1470.84,23.5 1490.5,24C 1500.42,25.1943 1509.75,28.1943 1518.5,33C 1562.29,68.4557 1605.79,104.289 1649,140.5C 1649.33,101.833 1649.67,63.1667 1650,24.5C 1673.76,23.5058 1697.59,23.1724 1721.5,23.5C 1721.5,75.5 1721.5,127.5 1721.5,179.5C 1701.83,179.667 1682.16,179.5 1662.5,179C 1652.58,177.804 1643.25,174.804 1634.5,170C 1590.71,134.544 1547.21,98.711 1504,62.5C 1503.67,101.167 1503.33,139.833 1503,178.5C 1479.24,179.494 1455.41,179.828 1431.5,179.5C 1431.5,127.5 1431.5,75.5 1431.5,23.5 Z"/></g>
<g><path style="opacity:0.98" fill="#fefffe" d="M 1795.5,23.5 C 1851.5,23.3333 1907.5,23.5 1963.5,24C 1986.87,24.7037 2010.2,26.037 2033.5,28C 2046.14,28.5929 2058.14,31.5929 2069.5,37C 2074.91,41.6547 2078.41,47.4881 2080,54.5C 2089.2,88.041 2088.54,121.374 2078,154.5C 2074.77,162.063 2069.27,167.229 2061.5,170C 2052.32,172.53 2042.99,174.197 2033.5,175C 2009.87,176.998 1986.2,178.331 1962.5,179C 1906.83,179.667 1851.17,179.667 1795.5,179C 1794.17,127.167 1794.17,75.3333 1795.5,23.5 Z M 1866.5,46.5 C 1906.18,46.2559 1945.84,46.7559 1985.5,48C 1990.25,48.1887 1994.92,48.8553 1999.5,50C 2001.29,50.7845 2002.79,51.9512 2004,53.5C 2017.97,85.5061 2017.97,117.506 2004,149.5C 2002.79,151.049 2001.29,152.215 1999.5,153C 1994.56,154.085 1989.56,154.752 1984.5,155C 1945.18,156.207 1905.84,156.707 1866.5,156.5C 1866.5,119.833 1866.5,83.1667 1866.5,46.5 Z"/></g>
</svg>
