<svg id="vector" xmlns="http://www.w3.org/2000/svg" width="420.0d" height="70.0d" viewBox="0 0 300.0 48.0"><defs><clipPath id="clip_path_0"><path d="M184.7,29c-1.4,0 -2.6,-1.1 -2.6,-2.5v-2.4c0,-1.4 1.1,-2.5 2.6,-2.5c3.5,-0.1 7,-0.1 10.4,0c1.4,0 2.6,1.1 2.6,2.5v2.4c0,1.4 -1.1,2.5 -2.6,2.5c-1.7,0.1 -3.5,0.1 -5.2,0.1C188.2,29.1 186.5,29.1 184.7,29M175.5,25.3c0,4.6 1.7,6.7 14.5,6.7c12.6,0 14.5,-2.1 14.5,-6.7c0,-4.6 -1.8,-6.7 -14.5,-6.7C177.2,18.6 175.5,20.7 175.5,25.3"/></clipPath><clipPath id="clip_path_1"><path d="M74.3,18.9v7.6c0,1.4 -1,2.4 -2.6,2.6c-1.8,0.2 -3.6,0.2 -5.2,0.2c-1.7,0 -3.4,-0.1 -5.2,-0.2c-1.5,-0.2 -2.6,-1.3 -2.6,-2.6v-7.6H52v6.7c0,4.6 1.7,6.5 14.5,6.5c12.7,0 14.5,-1.9 14.5,-6.5v-6.7H74.3z"/></clipPath><clipPath id="clip_path_2"><path d="M94.7,20.3c0,0 -2,1.7 -0.2,3.5c1.8,1.8 6.8,2.4 10.1,2.7c0,0 4,0.4 7.2,0.6c1.1,0.1 2.7,0.2 2.7,1c0,0.7 -1.8,1 -1.8,1c-5.9,1 -10.5,-0.1 -10.5,-0.1c-0.9,-0.2 -1.7,-0.5 -1.9,-1.3h-6.8c0.8,3.1 4.2,4.8 14.6,4.8c7.3,0 11,-0.7 12.8,-2.2c0,0 1.7,-1.5 0.3,-3.2c-1.4,-1.7 -6.9,-2.2 -10.3,-2.5c-2.4,-0.2 -7.2,-0.9 -7.2,-0.9c-1.1,-0.1 -2,-0.6 -2,-1.1c0,0 -0.3,-0.8 2,-1c2.2,-0.2 5.1,-0.2 8.7,0.2c1,0.1 1.7,0.6 1.8,1.3h7.2c-0.8,-3.1 -3.6,-4.6 -13.9,-4.6C100.2,18.3 96.5,18.8 94.7,20.3"/></clipPath><clipPath id="clip_path_3"><path d="M135.8,20.3c0,0 -2,1.7 -0.2,3.5c1.8,1.8 6.8,2.4 10.1,2.7c0,0 4,0.4 7.2,0.6c1.1,0.1 2.7,0.2 2.7,1c0,0.7 -1.8,1 -1.8,1c-5.9,1 -10.5,-0.1 -10.5,-0.1h0c-0.9,-0.2 -1.7,-0.5 -1.9,-1.3h-6.8c0.8,3.1 4.2,4.8 14.6,4.8c7.3,0 11,-0.7 12.8,-2.2c0,0 1.7,-1.5 0.3,-3.2c-1.4,-1.7 -6.9,-2.2 -10.3,-2.5c-2.4,-0.2 -7.2,-0.9 -7.2,-0.9c-1.1,-0.1 -2,-0.6 -2,-1.1c0,0 -0.3,-0.8 2,-1c2.2,-0.2 5.1,-0.2 8.7,0.2c1,0.1 1.7,0.6 1.8,1.3h7.2c-0.8,-3.1 -3.6,-4.5 -13.9,-4.5C141.3,18.5 137.6,18.8 135.8,20.3"/></clipPath><clipPath id="clip_path_4"><path d="M32,19.3l-7.2,8.6l-7.2,-8.6l-7.2,0l0,12.7l6.1,0l0,-8.4l6.1,7.6l4.5,0l6.1,-7.6l0,8.4l6,0l0,-12.7z"/></clipPath><clipPath id="clip_path_5"><path d="M219.7,16c-2.4,0 -4.3,2.1 -4.3,4.5v7.3c0,2.4 1.9,4.3 4.3,4.3h13c2.4,0 4.3,-1.9 4.3,-4.3V22h-9.7v2.8h6v2.9c0,0.9 -0.7,1.6 -1.6,1.6h-11c-0.9,0 -1.6,-0.7 -1.6,-1.6v-7.2c0,-0.9 0.7,-1.7 1.6,-1.7H237c0,-1.5 -1.3,-2.8 -2.9,-2.8H219.7z"/></clipPath><clipPath id="clip_path_6"><path d="M219.7,16c-2.4,0 -4.3,2.1 -4.3,4.5v7.3c0,2.4 1.9,4.3 4.3,4.3h13c2.4,0 4.3,-1.9 4.3,-4.3V22h-9.7v2.8h6v2.9c0,0.9 -0.7,1.6 -1.6,1.6h-11c-0.9,0 -1.6,-0.7 -1.6,-1.6v-7.2c0,-0.9 0.7,-1.7 1.6,-1.7H237c0,-1.5 -1.3,-2.8 -2.9,-2.8H219.7z"/></clipPath><clipPath id="clip_path_7"><path d="M243,23.7h4.8c0.3,0 0.5,0.2 0.5,0.5v0.8c0,0.3 -0.2,0.5 -0.5,0.5H243V23.7zM240.7,22v7.2h2.2v-1.9h3.9l1.6,1.9h2.4l-1.6,-2c0.7,-0.3 1.2,-1 1.2,-1.8v-1.4c0,-1.1 -0.9,-1.9 -1.9,-1.9H240.7z"/></clipPath><clipPath id="clip_path_8"><path d="M254.8,24.2c0,-0.3 0.2,-0.5 0.5,-0.5h4.2c0.3,0 0.5,0.2 0.5,0.3v1.6h-5.2V24.2zM254.5,22c-1,0 -1.9,0.8 -1.9,1.8v5.4h2.2v-1.8h5.2v1.8h2.2v-5.4c0,-0.9 -0.9,-1.8 -1.9,-1.8H254.5z"/></clipPath><clipPath id="clip_path_9"><path d="M278.5,23.7h4.8c0.3,0 0.5,0.2 0.5,0.5v2.7c0,0.3 -0.2,0.5 -0.5,0.5h-4.8V23.7zM276.2,22v7.2h7.8c1.1,0 1.9,-0.9 1.9,-1.9v-3.4c0,-1.1 -0.9,-1.9 -1.9,-1.9H276.2z"/></clipPath><clipPath id="clip_path_10"><path d="M271.9,22l0,4.5l-5.3,-4.5l-2.2,0l0,7.2l2.2,0l0,-4.5l5.3,4.5l2.2,0l0,-7.2z"/></clipPath><clipPath id="clip_path_11"><path d="M266.6,29.2v-4.5V29.2zM266.6,24.7l5.3,4.5L266.6,24.7zM271.9,26.5l-5.3,-4.5L271.9,26.5zM264.4,22h2.2H264.4zM271.9,22v4.5V22zM274.1,29.2V22V29.2zM271.9,22h2.2H271.9z"/></clipPath></defs><g id="g_0"><path fill="#ffffffff" d="M175.5,18.6h28.9v13.4h-28.9z" clip-path="url(#clip_path_0)"/></g><g id="g_1"><path fill="#ffffffff" d="M52,18.9h28.9v13.3h-28.9z" clip-path="url(#clip_path_1)"/></g><g id="g_2"><path fill="#ffffffff" d="M92.7,18.3h29.9v14.1h-29.9z" clip-path="url(#clip_path_2)"/></g><g id="g_3"><path fill="#ffffffff" d="M133.8,18.5h29.9v14h-29.9z" clip-path="url(#clip_path_3)"/></g><g id="g_4"><path fill="#ffffffff" d="M10.4,19.3h28.8v12.8h-28.8z" clip-path="url(#clip_path_4)"/></g><g id="g_5"><path fill="#a21f24ff" d="M215.4,16h21.6v16.1h-21.6z" clip-path="url(#clip_path_5)"/></g><g id="g_6"><path fill="#a21f24ff" d="M215.4,16h21.6v16.1h-21.6z" clip-path="url(#clip_path_6)"/></g><g id="g_7"><path fill="#a21f24ff" d="M240.7,22h10.2v7.2h-10.2z" clip-path="url(#clip_path_7)"/></g><g id="g_8"><path fill="#a21f24ff" d="M252.6,22h9.7v7.2h-9.7z" clip-path="url(#clip_path_8)"/></g><g id="g_9"><path fill="#a21f24ff" d="M276.2,22h9.8v7.2h-9.8z" clip-path="url(#clip_path_9)"/></g><g id="g_10"><path fill="#a21f24ff" d="M264.4,22h9.8v7.2h-9.8z" clip-path="url(#clip_path_10)"/></g><g id="g_11"><path fill="#a21f24ff" d="M264.4,22h9.8v7.2h-9.8z" clip-path="url(#clip_path_11)"/></g></svg>