<svg id="vector" xmlns="http://www.w3.org/2000/svg" width="420.0d" height="20.199982d" viewBox="0 0 420.0 20.2"><path fill="#000" d="M224.6,10.7h-21.2c-0.5,0 -0.9,0.2 -1.2,0.5l-0.6,1.1 16.9,2.9 2.1,0.4c0.7,0.1 1,0.8 0.5,1.6l-1.1,1.8c-0.4,0.6 -1.1,1.1 -2.5,1.1h-9.7c0,0.1 -1.4,0.1 -1.4,0.1h0s-17.3,0 -17.3,0h-4.3l1.2,-2.1h21.4s0,0 0.1,0c0.6,0 1.1,-0.3 1.5,-0.7l1,-1.3 -14.5,-2.5 -4.5,-0.8h0c-0.7,-0.1 -1,-0.9 -0.5,-1.6l0.9,-1.5c0.5,-0.9 1.6,-1.1 2.5,-1.1h32.1l-1.2,2.1Z" stroke-width="0.0" id="path_0"/><path fill="#000" d="M69.1,8.6h-26.1c-2.1,0 -4.5,1.2 -6,3.7l-2.4,4.1c-1.3,2.2 -0.5,3.7 1.6,3.7h26.1c2.1,0 4.4,-1 6,-3.7l2.4,-4.1c1.4,-2.4 0.5,-3.7 -1.6,-3.7M61.6,11.9l-2.9,4.9c-0.4,0.7 -1.4,1.2 -2.2,1.2h-12.1c-0.8,0 -1.1,-0.6 -0.7,-1.2l2.9,-4.9c0.4,-0.7 1.4,-1.2 2.2,-1.2h12.1c0.8,0 1.1,0.6 0.7,1.2" stroke-width="0.0" id="path_1"/><path fill="#000" d="M110.4,20.2h9.4l5.7,-9.5h12.6c0.8,0 1.1,0.6 0.7,1.2l-1.1,1.7c-0.5,0.7 -1.2,1.1 -2.1,1.1h-4.7l4.3,5.4h9.3l-3.3,-4.2h2.4c1.2,0 2.4,-0.6 3,-1.7l1.5,-2.4c1.1,-1.8 0.2,-3.3 -1.9,-3.3h-27.4c-0.9,0 -1.8,0.5 -2.3,1.3l-6.1,10.3Z" stroke-width="0.0" id="path_2"/><path fill="#000" d="M80.7,20.2l5.7,-9.5h12.6c0.8,0 1.1,0.6 0.7,1.2l-1.1,1.7c-0.5,0.7 -1.2,1.1 -2.1,1.1h-4.7l4.3,5.4h9.3l-3.3,-4.2h2.4c1.2,0 2.4,-0.6 3,-1.7l1.5,-2.4c1.1,-1.8 0.2,-3.3 -1.9,-3.3h-27.4c-0.9,0 -1.8,0.5 -2.3,1.3l-6.1,10.3h9.4Z" stroke-width="0.0" id="path_3"/><path fill="#000" d="M12.9,10.6l-5.7,9.6h9.4l4.2,-7c0.3,-0.4 0,-1 -0.4,-1.2l-3.5,-1.4h17.8l1.2,-2.1H1.2l-1.2,2.1h12.9Z" stroke-width="0.0" id="path_4"/><path fill="#000" d="M177.8,20.2l1.2,-2.1h-19.7c-0.8,0 -1.1,-0.6 -0.7,-1.2l1,-1.8h21.1l1.3,-2.1h-21.1l0.6,-1c0.4,-0.7 1.4,-1.2 2.2,-1.2h19.7l1.2,-2.1h-26.7c-2.1,0 -4.5,1.2 -6,3.7l-2.4,4.1c-1.3,2.2 -0.5,3.7 1.6,3.7" stroke-width="0.0" id="path_5"/><path fill="#000" d="M358,0h-26c-0.2,0 -0.3,0.2 -0.2,0.4l1.7,1.7c0.5,0.5 1.1,0.8 1.8,0.8h10.2c0.5,0 0.8,0.7 0.4,1.1l-12.9,12.9c-0.3,0.3 -0.8,0.5 -1.2,0.5h-1.6c-0.5,0 -0.9,-0.2 -1.2,-0.5l-15.2,-15.8c-0.6,-0.7 -1.5,-1 -2.5,-1h-12.4l19.5,20.2h25.6l16.6,-16.7c0.4,-0.4 0.4,-1 0,-1.4l-1.7,-1.7c-0.3,-0.3 -0.8,-0.5 -1.2,-0.5" stroke-width="0.0" id="path_6"/><path fill="#000" d="M419.8,0h-12.5c-0.9,0 -1.8,0.4 -2.4,1l-6.9,6.9c-0.5,0.5 -1.1,0.7 -1.7,0.7h-10.1c-0.7,0 -1.3,-0.3 -1.7,-0.7l-6.9,-6.9c-0.6,-0.6 -1.5,-1 -2.4,-1h-13l9.4,9.4c0.4,0.4 0.4,1 0,1.4l-9.4,9.4h13c0.9,0 1.8,-0.4 2.4,-1l6.9,-6.9c0.5,-0.5 1.1,-0.7 1.7,-0.7h10.1c0.7,0 1.3,0.3 1.7,0.7l6.9,6.9c0.6,0.6 1.5,1 2.4,1h12.5c0.2,0 0.3,-0.2 0.2,-0.4l-9,-9.1c-0.4,-0.4 -0.4,-1 0,-1.4l9,-9c0.1,-0.1 0,-0.4 -0.2,-0.4" stroke-width="0.0" id="path_7"/><path fill="#000" d="M298,17.4h-32.5c-0.7,0 -1.3,-0.3 -1.7,-0.7l-5.8,-5.8c-0.4,-0.4 -0.4,-1 0,-1.4l5.8,-5.8c0.5,-0.5 1.1,-0.7 1.7,-0.7h22.7c0.5,0 0.8,0.7 0.4,1.1l-4,4c-0.5,0.5 -1.1,0.7 -1.7,0.7h-14c-0.2,0 -0.3,0.2 -0.2,0.4l1.7,1.7c0.5,0.5 1.1,0.8 1.8,0.8h21.8c0.9,0 1.8,-0.4 2.4,-1l4,-4c0.4,-0.4 0.4,-1 0,-1.4l-4.2,-4.2C295.7,0.4 294.8,0 293.9,0h-39.6c-0.9,0 -1.8,0.4 -2.4,1l-8.4,8.4c-0.4,0.4 -0.4,1 0,1.4l8.4,8.4c0.6,0.6 1.5,1 2.4,1h47.6l-2.1,-2.1c-0.5,-0.5 -1.1,-0.8 -1.8,-0.8" stroke-width="0.0" id="path_8"/></svg>