<svg id="vector" xmlns="http://www.w3.org/2000/svg" width="400.0d" height="15.0d" viewBox="0 0 420.0 20.0"><path fill="#fff" d="M28.5,3.8h-5.9L12.8,20h16.1l7.4,-12.3 -7.8,-3.9zM63.9,0L2.3,0L0,3.8h61.6L63.9,0zM187.3,0h-40.2l-2.3,3.8L135,20h16.1l9.8,-16.2L185,3.8l-3.9,6.2h-10l6.1,10h16.1l-4.5,-7.5h4.1c1.7,0 3.3,-0.9 4.2,-2.3l4.1,-6.5c1,-1.7 -0.3,-3.8 -2.3,-3.8 -0.1,0.1 -11.6,0.1 -11.6,0.1zM259.8,0h-40.2l-2.3,3.8 -9.8,16.2h16.1l9.8,-16.2h24.1l-3.9,6.2h-10l6.1,10h16.1l-4.5,-7.5h4.1c1.7,0 3.3,-0.9 4.2,-2.3l4.1,-6.5c1,-1.7 -0.3,-3.8 -2.3,-3.8 -0.1,0.1 -11.6,0.1 -11.6,0.1zM113.9,0L78.1,0c-2.8,0 -5.5,1.4 -6.9,3.8l-7.5,12.4c-1,1.7 0.3,3.8 2.3,3.8h47.3c2.8,0 5.5,-1.4 6.9,-3.8l7.5,-12.4c1,-1.7 -0.3,-3.8 -2.3,-3.8h-11.5,0zM103.2,16.2L82.3,16.2a1.43,1.43 0,0 1,-1.3 -2.1l5.8,-9.7c0.3,-0.4 0.7,-0.7 1.3,-0.7L109,3.7a1.43,1.43 0,0 1,1.3 2.1l-5.8,9.7c-0.3,0.4 -0.7,0.7 -1.3,0.7zM342.7,3.8L345,0h-50.9c-1.4,0 -2.7,0.7 -3.4,1.9l-7.6,12.5c-1.5,2.5 0.4,5.6 3.4,5.6h46l2.3,-3.8h-36.7l2.6,-4.3h36.9l2.3,-3.8L303,8.1l2.6,-4.3h37.1,0zM417.4,3.8L420,0h-53.4c-3.4,0 -6.5,1.7 -8.2,4.5l-0.1,0.2c-1,1.6 0.1,3.7 2.1,3.9l31.1,3.1c0.4,0 0.6,0.5 0.4,0.8l-1.5,2.5c-0.5,0.8 -1.3,1.2 -2.2,1.2h-36L349,20h56.3c1.9,0 3.6,-0.9 4.5,-2.5L412,14c0.6,-1 -0.1,-2.3 -1.3,-2.4l-29.7,-3c-1.8,-0.2 -2.8,-2.1 -1.9,-3.6 0.5,-0.7 1.3,-1.2 2.2,-1.2h36.1,0 0z" id="path_0"/></svg>