<svg id="vector" xmlns="http://www.w3.org/2000/svg" width="477.0d" height="511.875d" viewBox="0 0 477.0 511.88"><path fill="#2D2C3E" d="M416.63,111.42c0,17.38 -0.41,35.18 -1.05,53.16 37.02,-41.55 47.38,-77.51 42.06,-103.58 -3.78,-18.51 -15.72,-31.95 -31.43,-38.44 -16.12,-6.66 -36.29,-6.14 -55.99,3.5 -22.87,11.19 -44.94,34.45 -59.77,72.71l90.14,-3.39c8.55,-0.31 15.74,6.38 16.05,14.93 0.01,0.37 0.01,0.75 0,1.12zM205.74,320.55l-14.06,14.06 -15.83,-9.65 -32.64,32.64c8.57,8.23 18.44,8.61 28.84,3.55 5.57,-2.71 11.33,-7.06 17.31,-13.04l22.6,22.6c-9.35,9.35 -19.2,15.66 -29.59,18.93 -21.36,6.71 -41.76,1.04 -57.48,-14.68 -4.69,-4.69 -8.71,-9.01 -12.03,-12.89 -3.35,-3.86 -6.08,-7.28 -8.24,-10.2l43.7,-43.7 -10.84,-6.61 14.17,-14.17 10.82,6.63 6.26,-6.26 -10.85,-6.61 14.19,-14.19 10.87,6.58 16.87,-16.87 22.17,22.17 -11.42,11.42 15.87,9.61 -14.32,14.32 -15.84,-9.64 -6.32,6.32 15.8,9.68zM414.47,191.92c-1.49,33.13 -3.42,66.45 -4.64,98.51a15.44,15.44 0,0 1,-4.53 10.4l0.03,0.03 -196.44,196.44c-9.72,9.72 -22.52,14.58 -35.31,14.58 -12.79,0 -25.59,-4.86 -35.31,-14.58L14.58,373.62C4.86,363.9 0,351.09 0,338.3c0,-12.79 4.86,-25.59 14.58,-35.31l196.37,-196.37a15.49,15.49 0,0 1,11.42 -4.54l68.61,-2.58c16.6,-47.39 43.39,-76.07 71.28,-89.71 24.58,-12.02 50.13,-12.52 70.86,-3.95 21.14,8.73 37.19,26.76 42.24,51.56 7.01,34.35 -7.59,81.83 -60.89,134.53zM276.45,166.36c2.05,-18.82 5.33,-35.84 9.61,-51.16l-64.12,2.41 -196.37,196.37c-13.38,13.38 -13.38,35.28 -0,48.66l123.68,123.68c13.38,13.38 35.28,13.38 48.66,0l196.44,-196.44 6.8,-179.02 -96.11,3.62c-4.04,13.3 -7.28,28.12 -9.52,44.56a50.25,50.25 0,0 1,8.02 -0.64c12.78,-0 25.57,4.88 35.32,14.63 9.75,9.75 14.63,22.54 14.63,35.32 0,12.78 -4.88,25.57 -14.63,35.33 -9.75,9.75 -22.54,14.63 -35.32,14.63 -12.78,0 -25.57,-4.88 -35.33,-14.63 -9.75,-9.75 -14.63,-22.54 -14.63,-35.32 -0,-12.78 4.88,-25.57 14.63,-35.32a50.1,50.1 0,0 1,8.24 -6.66zM279.19,184c13.44,-13.44 35.24,-13.44 48.68,0 13.44,13.44 13.44,35.24 0,48.68 -13.44,13.44 -35.24,13.44 -48.68,0 -13.44,-13.44 -13.44,-35.24 0,-48.68z" fill-rule="evenodd" id="path_0"/></svg>