<svg id="vector" xmlns="http://www.w3.org/2000/svg" width="800.0d" height="800.0d" viewBox="0 0 459.0 459.0"><path fill="#ea0909ff" d="M229.5,0C102.75,0 0,102.75 0,229.5S102.75,459 229.5,459S459,356.25 459,229.5S356.25,0 229.5,0zM310.29,239.65l-111.76,76.08c-3.76,2.56 -8.63,2.83 -12.65,0.7c-4.02,-2.13 -6.54,-6.3 -6.54,-10.85V153.42c0,-4.55 2.52,-8.73 6.54,-10.85c4.02,-2.13 8.89,-1.86 12.65,0.7l111.76,76.08c3.36,2.29 5.37,6.09 5.37,10.15C315.66,233.56 313.65,237.36 310.29,239.65z" id="path_0"/></svg>