<svg id="vector" xmlns="http://www.w3.org/2000/svg" width="772.5156d" height="772.5156d" viewBox="0 0 772.52 772.52"><path fill="#fff" d="m386.25,137.26c-99.48,0 -179.81,80.41 -179.81,179.59 0,31.19 7.97,60.53 21.94,86.09l157.88,264.31 157.88,-264.31c13.97,-25.57 21.94,-54.91 21.94,-86.09 0,-99.18 -80.33,-179.59 -179.81,-179.59zM384.25,241.63c0.67,-0.02 1.33,0 2,0 42.97,0 77.81,34.84 77.81,77.81 0,42.97 -34.84,77.81 -77.81,77.81 -42.97,0 -77.81,-34.84 -77.81,-77.81 0,-42.3 33.77,-76.75 75.81,-77.81z" stroke="#00000000" stroke-width="10.397" id="path_0"/><path fill="#00000000" d="M386.26,386.26m-368.76,0a368.76,368.76 0,1 1,737.52 0a368.76,368.76 0,1 1,-737.52 0" stroke="#fff" stroke-width="35.0" stroke-linecap="butt" stroke-linejoin="round" fill-rule="evenodd" id="path_1"/></svg>