<svg id="vector" xmlns="http://www.w3.org/2000/svg" width="512.0d" height="512.0d" viewBox="0 0 512.0 512.0"><path fill="#fff" d="M17.1,4c-5.6,1.3 -11.3,6.1 -14.3,11.9l-2.8,5.3 0,194.7c0,193.3 0.1,194.6 2.1,199.1 1.5,3.4 12.5,15.1 44.2,46.8 23.3,23.4 44,43.3 46.2,44.5 3.8,2.1 5.1,2.2 31.8,2.2l27.9,-0 1.9,-2.4c2.5,-3 2.4,-7.6 -0.1,-10.1 -1.9,-1.9 -3.3,-2 -23,-2l-21,-0 0,-37.8c0,-21.8 -0.4,-39.2 -1,-41.3 -1.3,-4.8 -7.5,-11.8 -12.4,-14 -3.8,-1.7 -7.4,-1.9 -42.8,-1.9l-38.8,-0 0,-187.8c0.1,-146 0.3,-188.1 1.3,-189.3 0.7,-0.9 2.2,-2.1 3.4,-2.7 3,-1.7 337.1,-1.7 340.6,-0.1 4.2,1.9 4.7,4.7 4.7,25.8 0,21.8 0.4,23.3 6.2,24.7 2.2,0.5 3.4,-0 5.9,-2.5l3.1,-3.1 -0.4,-22.3 -0.3,-22.4 -3,-4.9c-1.9,-3 -4.9,-6 -7.9,-7.9l-4.9,-3 -171.6,-0.2c-94.4,-0 -173.1,0.3 -175,0.7zM92.5,416.5l2.5,2.4 0,35.1c0,19.2 -0.1,35 -0.3,35 -0.1,-0 -17.1,-16.9 -37.7,-37.5l-37.5,-37.5 35.3,-0 35.3,-0 2.4,2.5z" stroke="#00000000" id="path_0"/><path fill="#fff" d="M68.5,42.9c-9.1,4.2 -10.4,8.2 -10.5,32.4 0,20 0.6,23.5 5.3,28.5 4.6,5 6,5.2 31.2,5.2 22.2,-0 23.6,-0.1 25.5,-2 2.5,-2.5 2.6,-7.1 0.1,-10.1 -1.9,-2.4 -2.3,-2.4 -24.3,-2.9l-22.3,-0.5 -0.3,-16.5c-0.1,-9.1 0,-17.5 0.3,-18.8l0.5,-2.2 112.3,0.2 112.2,0.3 0,18.5 0,18.5 -76.5,0.5c-57.7,0.4 -77,0.8 -78.6,1.7 -3.9,2.3 -4.6,8.1 -1.4,11.3 2,2 3.3,2 80.6,2 88.1,-0 83.1,0.4 88.2,-7.3l2.7,-4.1 0,-22.6 0,-22.7 -2.9,-3.7c-1.6,-2.1 -4.7,-4.7 -7,-5.7 -3.9,-1.8 -8.9,-1.9 -117.6,-1.9 -108,-0 -113.7,0.1 -117.5,1.9z" stroke="#00000000" id="path_1"/><path fill="#fff" d="M367,88c-2,2 -2,3.3 -2,70l0,68 -6.4,-0c-7.3,-0 -11,1.1 -14.4,4.3 -4.9,4.5 -5.6,7.3 -6.2,23.6l-0.5,15.4 -7,2.9 -6.9,2.8 -10.6,-10.4c-5.8,-5.7 -11.5,-10.9 -12.7,-11.5 -3.1,-1.5 -10.9,-1.4 -14.1,0.3 -3.2,1.7 -28.5,27.2 -30.1,30.3 -1.4,2.7 -1.4,9.3 0,12.9 0.5,1.6 5.8,7.6 11.6,13.6l10.6,10.7 -2.6,5.9c-1.5,3.3 -2.7,6.5 -2.7,7.1 0,0.8 -4.5,1.1 -14.9,1.1 -15.5,-0 -19,0.6 -23,4.3 -5.2,4.8 -6.1,8.8 -6.1,27.2 0,19.2 0.8,23.5 5.4,28.1 4.4,4.4 8.9,5.4 24.6,5.4l13.5,-0 2.9,7.1 2.8,7.1 -10.5,10.7c-10.9,10.9 -12.7,13.7 -12.7,19.6 0,6 1.9,8.8 15.3,22.4 13.5,13.6 17.1,16.1 23.1,16.1 6,-0 8.8,-1.8 19.7,-12.7l10.7,-10.5 7.1,2.8 7.1,2.9 0,14.2 0,14.3 -79.9,-0 -80,-0 -2,2.6c-1.2,1.5 -2.1,3.3 -2.1,4 0,2.6 2.3,6.2 4.7,7.3 1.7,0.8 32.2,1.1 106.1,1.1 98.7,-0 103.9,-0.1 107.7,-1.9 4.6,-2.1 7.9,-5.4 9.4,-9.4 0.6,-1.6 1.1,-9.6 1.1,-17.8 0,-10.4 0.3,-14.9 1.1,-14.9 0.6,-0 3.8,-1.2 7.1,-2.7l5.9,-2.6 10.7,10.6c6,5.8 12,11.1 13.6,11.6 3.5,1.4 8.7,1.4 12.3,0.1 3.2,-1.3 28.7,-26.2 30.9,-30.2 1.7,-3.2 1.8,-11 0.3,-14.1 -0.6,-1.2 -5.8,-6.9 -11.5,-12.7l-10.4,-10.6 2.8,-6.9 2.9,-7 15.4,-0.5c16.3,-0.6 19.1,-1.3 23.6,-6.2 3.8,-4 4.3,-7.2 4.3,-26.5 0,-16.8 -0.2,-19.1 -2.1,-22.9 -3.6,-7.6 -6.9,-8.8 -25.2,-9.4l-15.8,-0.5 -3,-7 -2.9,-7 10.4,-10.5c5.7,-5.8 10.9,-11.5 11.5,-12.7 1.4,-2.8 1.4,-10.3 0,-14 -1.3,-3.6 -25.3,-27.8 -29.5,-29.8 -3.7,-1.8 -11.6,-2 -14.7,-0.4 -1.2,0.6 -6.9,5.8 -12.7,11.5l-10.5,10.4 -7,-2.9 -7,-3 -0.5,-15.8c-0.5,-14.2 -0.7,-16.2 -2.8,-19.5 -2.9,-4.6 -9.2,-7.8 -15.5,-7.8l-4.7,-0 0,-67.4c0,-66.6 0,-67.4 -2.1,-70 -2.6,-3.3 -7.9,-3.6 -10.9,-0.6zM388,259.2c0.5,16.7 0.6,17.8 2.8,20.1 1.2,1.3 4.1,3 6.3,3.6 2.3,0.7 7.5,2.8 11.6,4.7 11.7,5.3 11.7,5.3 25.8,-8.6 6.6,-6.6 12.7,-12 13.4,-12 1.2,-0 22.2,21.2 23,23.2 0.2,0.5 -5.2,6.5 -11.9,13.3 -12,12.2 -12.2,12.5 -11.7,16.2 0.7,5.2 9.1,25.1 11.7,27.7 1.9,1.9 3.5,2.1 19.8,2.6l17.7,0.5 0,17 0,17 -17.6,0.3c-20.5,0.3 -21.2,0.6 -24.4,10.3 -1,3 -3.1,8 -4.6,11.1 -5.1,10.1 -4.3,12.1 10.5,26.8 5.8,5.7 10.6,10.9 10.6,11.5 0,1.3 -22.2,23.5 -23.4,23.5 -0.6,-0 -6.5,-5.4 -13.1,-12 -13.8,-13.6 -15.2,-14.2 -24.3,-9.6 -2.6,1.2 -8,3.5 -12,5 -4.4,1.7 -7.7,3.6 -8.5,4.9 -0.8,1.4 -1.4,8.5 -1.7,19.7l-0.5,17.5 -17,-0 -17,-0 -0.5,-18.1c-0.6,-20.9 -0.7,-21.2 -9.4,-24 -2.8,-0.9 -8,-3 -11.5,-4.5 -10.9,-4.9 -11.6,-4.7 -25.6,9.1 -6.6,6.6 -12.5,12 -13,12 -1.3,-0 -23.5,-22.2 -23.5,-23.4 0,-0.6 5.4,-6.5 12,-13.1 13.8,-14 14,-14.7 9.1,-25.6 -1.5,-3.5 -3.6,-8.8 -4.5,-11.6 -2.9,-8.8 -4.1,-9.3 -23.5,-9.3 -9.1,-0 -17.2,-0.4 -17.9,-0.8 -0.9,-0.7 -1.2,-4.8 -1,-17.3l0.3,-16.4 17.5,-0.5c11.2,-0.3 18.3,-0.9 19.7,-1.7 1.3,-0.8 3.2,-4.1 4.9,-8.5 1.5,-4 3.8,-9.4 5,-12 4.6,-9.1 4,-10.5 -9.6,-24.3 -6.6,-6.6 -12,-12.5 -12,-13 0,-1.3 22.2,-23.5 23.5,-23.5 0.6,-0 5.8,4.8 11.5,10.6 14.7,14.8 16.7,15.6 26.8,10.5 3.1,-1.5 8.1,-3.6 11.1,-4.6 3,-1 6.5,-2.9 7.8,-4.3 2.2,-2.4 2.3,-3.1 2.3,-19.7 0,-9.4 0.3,-17.5 0.7,-17.9 0.4,-0.3 8.1,-0.5 17.2,-0.4l16.6,0.3 0.5,17.7z" stroke="#00000000" id="path_2"/><path fill="#fff" d="M355.2,306c-17.9,4.8 -33.2,17.2 -40.9,33 -5.4,11.1 -6.8,17.4 -6.7,29.5 0.3,22.2 11.8,42 31.1,53.4 13.5,7.9 31.7,10.7 46.3,7.2 28.3,-6.8 48.9,-32.9 49,-62.2 0,-8.3 -3,-20.5 -7.3,-28.9 -3.9,-7.9 -16.7,-21.3 -24.7,-25.7 -13.8,-7.7 -32.4,-10.3 -46.8,-6.3zM365,367.1l0,48.2 -4.2,-0.7c-2.4,-0.3 -7.5,-2.2 -11.4,-4.1 -19.4,-9.5 -30.7,-32 -26.1,-52.3 2.3,-10.1 6.3,-17.7 12.7,-24.2 8,-8.2 14.7,-11.7 28.8,-14.9 0.1,-0.1 0.2,21.6 0.2,48zM391.8,324c7.5,3.5 17.4,13 21.4,20.6 12.8,24 3.1,54.2 -21.3,65.9 -4,1.9 -8.4,3.5 -9.6,3.5l-2.3,-0 0,-47.1 0,-47.1 2.8,0.6c1.5,0.4 5.5,2 9,3.6z" stroke="#00000000" id="path_3"/><path fill="#fff" d="M69.7,136.4c-5.2,1.9 -8.3,5 -10.3,10.1 -1.3,3.5 -1.5,7.5 -1.2,22.2 0.3,17.5 0.4,18.1 3,22 4.5,6.7 6.7,7.3 30.1,7.3 19.6,-0 20.5,-0.1 23.8,-2.3 1.8,-1.2 4.4,-3.8 5.6,-5.6 2.2,-3.3 2.3,-4.2 2.3,-23.6 0,-19.3 -0.1,-20.4 -2.3,-23.5 -4.5,-6.8 -7,-7.5 -28.2,-7.7 -14.4,-0.2 -19.9,0.1 -22.8,1.1zM108,166.5l0,16.5 -17.2,-0.2 -17.3,-0.3 -0.3,-15c-0.1,-8.2 0,-15.5 0.2,-16.2 0.4,-1 4.6,-1.3 17.6,-1.3l17,-0 0,16.5z" stroke="#00000000" id="path_4"/><path fill="#fff" d="M154.9,146.9c-1.7,1.3 -2.3,2.9 -2.3,5.6 0,2.7 0.6,4.3 2.3,5.6 2.2,1.8 5.6,1.9 78.3,1.9l75.9,-0 2.4,-2.5c1.4,-1.3 2.5,-3.6 2.5,-5 0,-1.4 -1.1,-3.7 -2.5,-5l-2.4,-2.5 -75.9,-0c-72.7,-0 -76.1,0.1 -78.3,1.9z" stroke="#00000000" id="path_5"/><path fill="#fff" d="M156.2,175.7c-2.1,0.8 -4.3,6.1 -3.6,8.8 1.4,5.5 1.5,5.5 43.9,5.5l39.2,-0 2.1,-2.3c3.1,-3.3 2.9,-8 -0.4,-10.6 -2.6,-2 -3.7,-2.1 -41.3,-2 -21.2,-0 -39.2,0.3 -39.9,0.6z" stroke="#00000000" id="path_6"/><path fill="#fff" d="M68.5,225.4c-4.8,2.1 -9.3,7.9 -10,12.9 -0.4,2.4 -0.5,11.8 -0.3,20.9 0.3,15.6 0.4,16.6 2.8,20.1 1.4,2.1 4.4,4.6 6.7,5.8 3.9,1.9 5.7,2 24.7,1.7 22.7,-0.3 23.4,-0.5 28.4,-7.8 2.1,-3.1 2.2,-4.2 2.2,-23.2 0,-22.2 -0.3,-23.7 -6.7,-28.5l-3.6,-2.8 -20.6,-0.2c-15.6,-0.2 -21.3,-0 -23.6,1.1zM108,255.5l0,16.5 -17.2,-0.2 -17.3,-0.3 -0.3,-15c-0.1,-8.2 0,-15.5 0.2,-16.2 0.4,-1 4.6,-1.3 17.6,-1.3l17,-0 0,16.5z" stroke="#00000000" id="path_7"/><path fill="#fff" d="M154.9,234.9c-1.7,1.3 -2.3,2.9 -2.3,5.6 0,2.7 0.6,4.3 2.3,5.6 2.2,1.8 4.9,1.9 51.1,1.9 26.9,-0 49.6,-0.3 50.5,-0.6 4.5,-1.8 4.8,-11.1 0.5,-13.4 -1.2,-0.6 -20.8,-1 -50.8,-1 -46.4,-0 -49.1,0.1 -51.3,1.9z" stroke="#00000000" id="path_8"/><path fill="#fff" d="M156.4,264c-4.8,1.9 -5.2,10.5 -0.5,12.9 1.2,0.7 10,1.1 22.6,1.1l20.6,-0 2.6,-2.6c2,-2 2.4,-3.1 1.9,-5.7 -1.2,-6.4 -2.5,-6.7 -25,-6.6 -11,-0 -21,0.4 -22.2,0.9z" stroke="#00000000" id="path_9"/><path fill="#fff" d="M66.5,315.4c-7.2,4.4 -8,6.7 -8.3,26.6 -0.2,11.1 0,18.9 0.8,21.3 1.5,5.2 6.4,10.4 10.8,11.7 2,0.5 11.8,1 21.7,1 16.8,-0 18.4,-0.2 22.5,-2.3 2.5,-1.2 5.5,-3.7 6.7,-5.6 2.2,-3.2 2.3,-4.3 2.3,-23.6 0,-19.3 -0.1,-20.4 -2.2,-23.5 -5,-7.3 -5.6,-7.5 -29.1,-7.8 -20.9,-0.2 -21.3,-0.2 -25.2,2.2zM108,344.5l0,16.5 -17.2,-0.2 -17.3,-0.3 -0.3,-15c-0.1,-8.2 0,-15.5 0.2,-16.2 0.4,-1 4.6,-1.3 17.6,-1.3l17,-0 0,16.5z" stroke="#00000000" id="path_10"/><path fill="#fff" d="M155.7,323.1c-4.8,2.8 -4,10.7 1.2,12.9 1.9,0.7 11.1,1 29,0.8 26.2,-0.3 26.3,-0.3 28.2,-2.7 2.5,-3 2.4,-6.2 -0.2,-9.5l-2,-2.6 -27.2,-0c-17.1,-0 -27.9,0.4 -29,1.1z" stroke="#00000000" id="path_11"/><path fill="#fff" d="M155.3,353.5c-1.1,0.8 -2.4,2.6 -2.7,4 -0.7,2.9 1.5,7.9 3.9,8.9 0.9,0.3 7.9,0.6 15.4,0.6 12.5,-0 14.1,-0.2 16.5,-2.1 3.3,-2.6 3.6,-7.9 0.6,-10.9 -1.8,-1.8 -3.3,-2 -16.8,-2 -11.4,-0 -15.2,0.3 -16.9,1.5z" stroke="#00000000" id="path_12"/></svg>